<?xml version="1.0" standalone="no"?>
<!DOCTYPE svg PUBLIC "-//W3C//DTD SVG 20010904//EN"
 "http://www.w3.org/TR/2001/REC-SVG-20010904/DTD/svg10.dtd">
<svg version="1.0" xmlns="http://www.w3.org/2000/svg"
 width="639.000000pt" height="397.000000pt" viewBox="0 0 639.000000 397.000000"
 preserveAspectRatio="xMidYMid meet">

<g transform="translate(0.000000,397.000000) scale(0.100000,-0.100000)"
fill="#000000" stroke="none">
<path d="M3444 3100 l6 -40 -204 0 c-126 0 -207 4 -211 10 -8 13 -48 13 -61 1
-14 -15 -181 -15 -269 -2 -91 15 -209 8 -277 -15 -57 -19 -120 -72 -144 -121
-17 -33 -19 -62 -19 -228 0 -177 1 -193 22 -232 28 -52 83 -98 142 -118 62
-22 253 -31 311 -15 54 15 216 13 241 -3 14 -8 27 -8 52 1 22 8 101 12 231 12
195 0 197 0 186 -21 -6 -11 -10 -30 -8 -42 3 -21 4 -21 36 10 l32 31 162 -1
c149 -2 166 0 203 19 83 45 127 109 151 223 38 183 -3 373 -100 459 -56 49
-94 57 -265 55 l-154 -1 -24 29 c-35 41 -47 37 -39 -11z m-54 -83 c-111 -16
-185 -20 -415 -21 -166 0 -296 4 -320 10 l-40 11 70 7 c39 4 75 9 80 11 6 2
179 3 385 3 l375 0 -135 -21z m524 -8 c45 -53 27 -83 -19 -33 -25 27 -34 64
-16 64 5 0 21 -14 35 -31z m-265 -24 c136 -123 134 -443 -4 -563 -20 -18 -41
-32 -47 -32 -7 0 -70 8 -140 17 -104 13 -128 19 -123 31 15 39 35 194 35 267
0 74 -20 228 -35 267 -5 12 16 18 107 30 164 23 163 23 207 -17z m-1279 -3 c0
-21 -27 -62 -41 -62 -14 0 -11 28 7 55 19 29 34 32 34 7z m355 -41 c-33 -106
-33 -366 1 -474 5 -16 -4 -17 -128 -11 -117 6 -136 9 -155 28 -36 34 -56 135
-50 246 6 100 18 148 49 192 18 26 23 27 121 31 56 1 117 4 135 5 29 2 32 -1
27 -17z m-348 -263 c-2 -18 -4 -6 -4 27 0 33 2 48 4 33 2 -15 2 -42 0 -60z
m1623 27 c0 -8 -4 -15 -10 -15 -5 0 -10 7 -10 15 0 8 5 15 10 15 6 0 10 -7 10
-15z m-1646 -237 c17 -24 21 -58 7 -58 -5 0 -16 11 -25 25 -30 46 -13 78 18
33z m1586 -22 c0 -17 -48 -76 -61 -76 -16 0 -10 31 12 61 21 31 49 39 49 15z
m-570 -52 l145 -19 -340 -3 c-217 -2 -381 1 -455 9 -63 7 -110 14 -104 16 81
28 537 26 754 -3z"/>
<path d="M1199 2011 c-107 -22 -199 -97 -248 -200 -22 -48 -26 -69 -26 -146 0
-76 5 -99 27 -146 36 -79 90 -134 163 -169 141 -67 301 -45 403 56 53 54 64
80 37 91 -11 3 -28 -9 -52 -36 -19 -23 -58 -54 -87 -69 -44 -23 -63 -27 -136
-27 -100 1 -156 22 -215 80 -118 118 -120 319 -4 434 121 121 345 114 443 -15
33 -43 34 -44 56 -26 l22 18 -46 50 c-78 88 -217 131 -337 105z"/>
<path d="M2730 1665 l0 -347 153 4 c149 3 154 4 219 36 123 60 189 168 189
307 0 137 -73 256 -196 315 -45 22 -65 25 -207 28 l-158 4 0 -347z m358 260
c59 -32 91 -66 125 -129 32 -59 32 -203 0 -262 -34 -63 -66 -97 -125 -129 -49
-28 -62 -30 -180 -33 l-128 -4 0 297 0 297 128 -4 c118 -3 131 -5 180 -33z"/>
<path d="M3930 1665 l0 -345 25 0 c24 0 24 0 27 117 l3 117 130 -117 c109 -98
135 -117 163 -117 17 0 32 1 32 3 0 2 -61 57 -135 123 -74 65 -135 121 -135
124 0 3 50 59 111 125 103 113 108 120 84 123 -22 3 -39 -10 -103 -80 -43 -45
-94 -101 -114 -123 l-37 -40 -1 218 0 217 -25 0 -25 0 0 -345z"/>
<path d="M4380 1665 l0 -345 24 0 25 0 3 184 c3 169 5 187 24 213 47 63 149
85 215 46 61 -35 69 -67 69 -265 l0 -178 26 0 26 0 -4 193 c-3 193 -3 194 -31
236 -63 94 -219 109 -304 29 l-23 -21 0 126 0 127 -25 0 -25 0 0 -345z"/>
<path d="M1794 1814 c-174 -62 -215 -316 -71 -439 98 -84 253 -81 345 7 l32
32 0 -47 c0 -43 2 -47 25 -47 l25 0 0 250 0 250 -25 0 c-23 0 -25 -4 -25 -41
l0 -41 -32 28 c-75 62 -181 81 -274 48z m190 -50 c77 -40 118 -107 118 -195 0
-183 -215 -277 -352 -153 -70 64 -88 164 -44 252 52 105 175 147 278 96z"/>
<path d="M2380 1819 c-14 -6 -42 -26 -62 -47 l-38 -36 0 42 c0 38 -2 42 -25
42 l-25 0 0 -250 0 -250 25 0 25 0 0 148 c0 81 5 165 11 187 14 51 75 110 123
119 30 6 36 11 36 31 0 28 -24 32 -70 14z"/>
<path d="M3516 1815 c-59 -23 -99 -57 -129 -113 -116 -214 80 -449 316 -378
54 16 99 46 127 86 l21 29 -21 11 c-17 9 -24 6 -50 -24 -58 -66 -193 -85 -272
-39 -47 28 -89 85 -95 132 l-6 41 233 0 232 0 -7 46 c-13 87 -53 151 -123 191
-55 33 -165 41 -226 18z m199 -57 c49 -26 95 -92 95 -138 0 -19 -5 -20 -204
-20 l-205 0 9 30 c38 131 182 192 305 128z"/>
<path d="M5026 1814 c-170 -62 -221 -279 -98 -416 169 -187 479 -44 448 206
-8 62 -54 146 -95 175 -69 50 -176 64 -255 35z m190 -54 c95 -41 141 -174 95
-275 -61 -135 -247 -166 -347 -58 -91 98 -65 270 51 331 68 35 125 36 201 2z"/>
<path d="M2757 1102 c-13 -14 -17 -38 -17 -96 0 -104 8 -116 71 -116 77 0 89
10 89 75 l0 55 -40 0 c-29 0 -40 -4 -40 -15 0 -10 10 -15 31 -15 28 0 30 -2
27 -32 -3 -37 -37 -55 -82 -44 -27 7 -27 7 -24 89 l3 82 58 3 c42 2 57 7 57
17 0 24 -112 21 -133 -3z"/>
<path d="M1382 1098 c-7 -7 -12 -44 -12 -94 0 -104 8 -114 92 -114 80 0 75 23
-8 30 -58 5 -59 5 -62 38 l-3 32 61 0 c81 0 79 24 -3 28 -48 3 -57 6 -57 22 0
43 10 50 71 50 33 0 59 4 59 10 0 14 -123 13 -138 -2z"/>
<path d="M1550 1010 c0 -115 4 -120 89 -120 38 0 51 4 51 15 0 10 -15 15 -57
17 l-58 3 -3 93 c-4 125 -22 119 -22 -8z"/>
<path d="M1732 1098 c-19 -19 -16 -173 4 -192 22 -22 134 -23 134 -1 0 12 -13
15 -60 15 -33 0 -60 5 -61 10 -6 55 -6 55 54 58 41 2 57 7 57 17 0 10 -16 15
-57 17 -50 3 -58 6 -58 23 0 35 15 45 71 45 30 0 54 5 54 10 0 14 -123 13
-138 -2z"/>
<path d="M1890 1105 c0 -3 16 -53 36 -111 46 -132 56 -132 101 -9 47 130 46
125 30 125 -9 0 -25 -29 -42 -77 -15 -43 -30 -81 -34 -85 -3 -4 -20 31 -36 77
-16 48 -35 85 -42 85 -7 0 -13 -2 -13 -5z"/>
<path d="M2106 1010 c-20 -56 -36 -106 -36 -111 0 -21 22 -7 31 21 10 29 13
30 69 30 56 0 59 -1 69 -30 5 -16 16 -30 24 -30 12 0 6 25 -23 108 -36 101
-39 107 -67 110 -30 3 -31 1 -67 -98z m95 22 l18 -52 -45 0 c-24 0 -44 4 -44
8 0 24 34 102 43 99 6 -2 18 -27 28 -55z"/>
<path d="M2270 1100 c0 -5 14 -10 30 -10 l30 0 0 -100 c0 -82 3 -100 15 -100
12 0 15 18 15 100 l0 100 35 0 c19 0 35 5 35 10 0 6 -33 10 -80 10 -47 0 -80
-4 -80 -10z"/>
<path d="M2460 1000 c0 -91 3 -110 15 -110 12 0 15 19 15 110 0 91 -3 110 -15
110 -12 0 -15 -19 -15 -110z"/>
<path d="M2530 1000 c0 -67 4 -110 10 -110 6 0 10 40 10 100 0 55 4 100 8 100
4 0 31 -45 61 -100 29 -55 59 -100 67 -100 11 0 14 21 14 110 0 95 -2 110 -16
110 -14 0 -16 -11 -12 -86 l4 -85 -32 58 c-18 32 -39 70 -48 86 -10 18 -23 27
-41 27 l-25 0 0 -110z"/>
<path d="M3062 1098 c-7 -7 -12 -43 -12 -93 0 -102 11 -115 93 -115 44 0 57 3
57 15 0 12 -13 15 -60 15 l-60 0 0 35 0 35 55 0 c44 0 55 3 55 16 0 13 -10 15
-55 12 l-56 -3 3 35 3 35 58 3 c31 2 57 7 57 12 0 14 -124 12 -138 -2z"/>
<path d="M3224 1093 c41 -121 74 -198 87 -201 11 -2 24 22 49 95 18 54 35 104
38 111 2 6 -2 12 -10 12 -8 0 -25 -33 -43 -85 -16 -46 -33 -81 -36 -77 -4 4
-19 42 -34 85 -17 48 -33 77 -42 77 -9 0 -12 -6 -9 -17z"/>
<path d="M3442 1098 c-19 -19 -16 -173 4 -192 22 -22 134 -23 134 -1 0 12 -13
15 -59 15 -61 0 -71 7 -71 51 0 17 8 19 60 19 47 0 60 3 60 15 0 12 -13 15
-60 15 -52 0 -60 2 -60 19 0 44 10 51 71 51 33 0 59 4 59 10 0 14 -123 13
-138 -2z"/>
<path d="M3610 1000 c0 -67 4 -110 10 -110 6 0 10 23 10 50 l0 50 36 0 c33 0
36 -3 56 -50 11 -27 27 -50 34 -50 18 0 18 -1 -7 55 l-21 47 21 15 c23 15 27
52 11 84 -9 16 -22 19 -80 19 l-70 0 0 -110z m125 55 c0 -29 -2 -30 -52 -33
l-53 -3 0 36 0 36 53 -3 c50 -3 52 -4 52 -33z"/>
<path d="M3810 1058 c12 -29 30 -60 40 -70 14 -11 20 -29 20 -57 0 -30 4 -41
15 -41 11 0 15 12 15 45 0 25 5 45 11 45 10 0 59 100 59 120 0 6 -6 10 -13 10
-7 0 -21 -23 -31 -51 -16 -44 -21 -50 -44 -47 -21 2 -30 12 -43 48 -9 25 -24
46 -33 48 -14 3 -14 -3 4 -50z"/>
<path d="M4120 1000 l0 -110 63 0 c87 0 97 12 97 116 0 49 -5 85 -12 92 -7 7
-40 12 -80 12 l-68 0 0 -110z m128 3 l3 -83 -56 0 -55 0 0 78 c0 43 3 82 7 86
4 4 28 6 53 4 l45 -3 3 -82z"/>
<path d="M4320 1000 c0 -67 4 -110 10 -110 6 0 10 23 10 50 l0 50 36 0 c33 0
37 -3 57 -50 11 -27 27 -50 34 -50 17 0 17 -1 -8 55 l-21 47 21 15 c23 15 27
52 11 84 -9 16 -22 19 -80 19 l-70 0 0 -110z m125 55 c0 -29 -2 -30 -52 -33
l-53 -3 0 36 0 36 53 -3 c50 -3 52 -4 52 -33z"/>
<path d="M4520 1000 c0 -67 4 -110 10 -110 6 0 10 43 10 110 0 67 -4 110 -10
110 -6 0 -10 -43 -10 -110z"/>
<path d="M4580 1101 c0 -5 16 -55 36 -111 26 -72 41 -100 52 -98 9 2 30 46 53
111 32 90 36 108 22 105 -11 -2 -26 -33 -46 -93 l-31 -90 -30 93 c-17 53 -36
92 -43 92 -7 0 -13 -4 -13 -9z"/>
<path d="M4790 1091 c-16 -31 -13 -153 6 -179 13 -19 24 -22 75 -22 45 0 59 3
59 15 0 10 -15 15 -57 17 -57 3 -58 3 -61 36 l-3 32 55 0 c45 0 56 3 56 16 0
13 -10 15 -55 12 l-56 -3 3 35 3 35 58 3 c78 4 72 22 -8 22 -53 0 -66 -3 -75
-19z"/>
</g>
</svg>
